<svg xmlns="http://www.w3.org/2000/svg" viewBox="0 0 666.66669 133.33333" height="133.333" width="666.667"><defs><clipPath id="a"><path d="M0 100h500V0H0z"/></clipPath></defs><g clip-path="url(#a)" transform="matrix(1.33333 0 0 -1.33333 0 133.333)"><path d="M44 85.336v-41.03c0-23.446 33.704-38.1 38.1-38.1 4.398 0 38.1 14.654 38.1 38.1v41.03s-11.724 8.794-38.1 8.794c-26.377 0-38.1-8.794-38.1-8.794" fill="#3f9beb"/><path d="M104.715 51.295s.463 18.994-21.216 19.713c-13.297.12-20.723-15.69-16.89-25.272 3.354-6.827 7.306-12.816 17.847-14.014-3.833-1.078-12.337-.6-17.248 2.994-4.912 3.594-11.86 11.5-10.063 22.16 1.797 10.66 8.984 19.523 15.093 19.882 6.108.36 11.618 1.558 14.133.84 2.516-.72 10.3-4.672 11.02-5.39.72-.72 4.312-5.27 4.312-5.27s4.942-11.04 3.01-15.642" fill="#f7505f"/><path d="M98.658 38.757c-4.15-4.362-10.002-7.09-16.483-7.09-12.55 0-22.76 10.21-22.76 22.76s10.21 22.76 22.76 22.76 22.76-10.21 22.76-22.76c0-1.063-.08-2.107-.22-3.132.124.038.245.09.355.162.145 1.097.228 2.214.228 3.35 0 13.943-11.302 25.245-25.243 25.245-13.942 0-25.244-11.302-25.244-25.244 0-13.94 11.303-25.243 25.245-25.243 7.815 0 14.8 3.553 19.43 9.13-.035.218-.102.455-.222.676-.198-.208-.4-.413-.605-.613" fill="#0264be"/><path d="M82.78 24.894c-.128 0-.256.033-.372.104-3.595 2.174-6.895 4.598-9.81 7.207-4.472 4.002-8.022 9.313-9.742 14.57-2.1 6.425-1.444 12.477 1.898 17.505 2.88 4.334 7.29 7.312 12.747 8.61 4.882 1.163 10.407.907 15.558-.718 6.22-1.963 12.177-6.27 15.94-11.525.23-.323.155-.772-.168-1.003-.323-.23-.77-.157-1.002.166-3.587 5.01-9.27 9.12-15.203 10.99-8.973 2.833-20.702 1.67-26.675-7.316-3.903-5.872-3.094-12.084-1.728-16.26 1.644-5.026 5.046-10.11 9.335-13.948 2.848-2.55 6.076-4.92 9.595-7.048.34-.206.448-.648.243-.987-.135-.222-.373-.346-.616-.346" fill="#ffe100"/><path d="M73.138 27.948c-.228 0-.453.108-.592.31-.273.396-.612.868-1 1.41-2.34 3.268-6.257 8.738-8.787 15.108-3.12 7.855-3.124 14.682-.012 20.292.013.025.028.048.043.07C70.535 75.99 80.296 77.666 87.117 77.16c7.352-.544 12.8-3.6 13.027-3.73.346-.197.467-.635.27-.98-.195-.345-.633-.466-.98-.27-.054.03-5.434 3.04-12.476 3.55-9.352.676-17.082-3.157-22.972-11.394-2.873-5.21-2.837-11.61.11-19.03 2.466-6.206 6.32-11.587 8.62-14.802.395-.55.737-1.028 1.015-1.43.224-.326.142-.773-.184-1-.125-.085-.267-.126-.408-.126" fill="#ffe100"/><path d="M81.104 30.284c-.034 0-.068.002-.102.007-5.822.833-10.932 4.436-14.39 10.148-3.852 6.362-4.843 14.272-2.59 20.644 2.156 6.09 7.48 10.4 14.604 11.83 4.23.847 8.867.62 13.057-.64 4.68-1.405 8.433-3.978 10.85-7.44.228-.325.148-.773-.177-1-.325-.228-.773-.148-1 .177-2.23 3.192-5.72 5.574-10.087 6.887-3.97 1.192-8.358 1.407-12.36.605-6.618-1.327-11.55-5.3-13.532-10.9-2.115-5.975-1.17-13.417 2.464-19.42 3.23-5.336 7.976-8.698 13.363-9.468.393-.056.666-.42.61-.813-.052-.357-.36-.616-.71-.616" fill="#2cd03e"/><path d="M69.597 27.595c-.197 0-.394.08-.536.24-.13.145-3.236 3.65-6 9.135-2.563 5.087-5.272 12.88-3.623 21.124 1.913 8.96 7.704 15.856 16.75 19.955 6.79 3.076 12.92 3.497 13.18 3.513.392.02.736-.276.762-.672.024-.395-.276-.737-.673-.762-.06-.004-6.163-.427-12.718-3.407-8.713-3.96-14.06-10.325-15.895-18.918-3.004-15.02 9.165-28.872 9.288-29.01.264-.297.24-.75-.057-1.015-.137-.123-.308-.183-.48-.183" fill="#2cd03e"/><path d="M159.41 21.98V36.41h-13.944V21.98h-6.308v33.614h6.308v-13.49h13.945v13.49h6.31V21.98zM183.733 26.148c4.525 0 6.217 2.152 6.217 9.232 0 7.082-1.692 9.234-6.217 9.234-4.572 0-6.308-2.152-6.308-9.234 0-7.08 1.783-9.232 6.308-9.232m0-4.796c-8.503 0-12.344 4.035-12.344 14.028 0 9.95 3.84 14.073 12.343 14.073 8.55 0 12.206-4.123 12.206-14.073 0-9.993-3.657-14.028-12.207-14.028M207.964 44.568V29.555c0-2.377 1.28-3.362 3.612-3.362.732 0 1.736.135 2.24.313l.365-4.257c-.915-.404-2.604-.718-4.296-.718-5.166 0-7.728 2.913-7.728 7.887v15.148h-3.427v4.392h3.61l1.052 6.32 4.572.448V48.96h6.446v-4.392zM226.387 21.443c-3.29 0-6.264.672-8.55 2.017l.688 4.84c2.148-1.39 5.347-2.107 7.862-2.107 3.337 0 4.754 1.48 4.754 3.45 0 5.11-13.394 2.466-13.394 11.79 0 4.705 3.337 7.977 10.058 7.977 2.746 0 5.347-.538 7.637-1.524l-.503-4.752c-2.286.942-5.12 1.39-7.224 1.39-2.743 0-4.388-1.075-4.388-2.87 0-4.75 13.21-2.105 13.21-11.472 0-5.243-3.015-8.74-10.148-8.74M253.042 44.255c-2.47 0-4.435-.987-5.626-2.644V29.107c.96-1.524 2.746-2.735 5.442-2.735 3.66 0 6.173 1.706 6.173 9.19 0 6.858-1.966 8.695-5.988 8.695m1.28-22.767c-2.606 0-5.03.627-6.86 2.51l-.134-.046.088-3.63v-5.11h-5.895V48.78l4.113.27 1.145-2.554c1.967 1.837 4.71 2.913 7.77 2.913 6.77 0 10.472-3.543 10.472-13.894 0-9.727-4.163-14.028-10.7-14.028M281.157 26.148c4.525 0 6.217 2.152 6.217 9.232 0 7.082-1.692 9.234-6.217 9.234-4.572 0-6.308-2.152-6.308-9.234 0-7.08 1.782-9.232 6.307-9.232m0-4.796c-8.503 0-12.344 4.035-12.344 14.028 0 9.95 3.84 14.073 12.344 14.073 8.547 0 12.206-4.123 12.206-14.073 0-9.993-3.66-14.028-12.206-14.028M305.388 44.568V29.555c0-2.377 1.28-3.362 3.612-3.362.732 0 1.74.135 2.24.313l.365-4.257c-.913-.404-2.605-.718-4.297-.718-5.166 0-7.727 2.913-7.727 7.887v15.148h-3.427v4.392h3.612l1.05 6.32 4.573.448V48.96h6.446v-4.392zM333.237 21.352c-3.93 0-7.496.94-10.33 2.51l.87 5.513c2.88-1.613 5.942-2.51 9.416-2.51 4.25 0 6.217 1.658 6.217 4.573 0 6.32-16.32 3.584-16.32 14.833 0 5.47 3.61 9.907 11.886 9.907 3.384 0 6.81-.673 9.373-1.794l-.827-5.332c-2.787.986-5.482 1.524-8.228 1.524-4.663 0-6.124-1.837-6.124-3.99 0-6.138 16.32-3.315 16.32-14.743 0-6.497-4.478-10.488-12.253-10.488M367.07 21.98v17.48c0 3.136-1.646 4.795-5.21 4.795-2.425 0-4.53-1.075-5.49-2.51V21.98h-5.804v35.093l5.804.314v-6.902l-.09-3.585.137-.09c2.058 1.88 4.663 2.643 7.268 2.643 5.855 0 9.235-3.63 9.235-9.994V21.98zM380.1 21.98v26.8l5.896.315V21.98zm2.972 30.566c-2.333 0-3.474.672-3.474 2.644 0 1.748 1.14 2.734 3.474 2.734 2.377 0 3.475-.986 3.475-2.734 0-1.792-1.098-2.644-3.475-2.644M409.723 38.024c-.09 4.752-2.286 6.544-5.714 6.544-3.98 0-5.67-1.972-5.943-6.544zm-17.554-2.06c0 8.56 3.84 13.445 11.796 13.445 6.764 0 11.105-3.9 11.105-12.506 0-.85-.043-1.928-.134-2.733h-16.734c.275-5.647 2.7-7.62 7.956-7.62 2.7 0 5.076.495 7.405 1.48l.685-4.706c-2.33-1.12-5.348-1.836-8.775-1.836-9.282 0-13.304 4.794-13.304 14.475M420.88 21.98v35.093l5.85.314V21.98zM450.367 41.746c-1.007 1.478-3.018 2.464-5.532 2.464-4.526 0-6.17-2.33-6.17-8.874 0-6.858 1.463-9.142 6.126-9.142 3.153 0 4.845 1.433 5.577 2.688zm1.28-19.767l-.642 2.556-.134.044c-1.69-2.017-4.16-3.137-7.68-3.137-7.224 0-10.56 4.482-10.56 14.117 0 8.963 3.382 13.893 10.513 13.893 2.79 0 5.35-.94 7.224-2.733l.09.09-.09 3.586v6.677l5.804.314V21.98zM145.425 83.172h-4.555v-8.575h4.555c2.998 0 4.555 1.092 4.555 4.345 0 3.068-1.51 4.23-4.555 4.23m0-9.226h-4.555v-7.553h-.767v17.43h5.322c3.672 0 5.322-1.395 5.322-4.88 0-3.44-1.604-4.997-5.322-4.997M158.972 66.696c3.416 0 4.764 1.86 4.764 6.46 0 4.578-1.348 6.438-4.764 6.438-3.462 0-4.857-1.883-4.857-6.438 0-4.6 1.395-6.46 4.857-6.46m0-.604c-3.857 0-5.577 1.952-5.577 7.064 0 5.067 1.766 7.02 5.577 7.02 3.858 0 5.484-1.953 5.484-7.02 0-5.112-1.626-7.064-5.484-7.064M176.098 79.965l3.207-11.247.488-1.813h.07l.418 1.836 2.836 11.225h.72l-3.532-13.57h-.976l-3.137 11.06-.464 1.836h-.07l-.487-1.835-3.232-11.06h-.883l-3.672 13.57h.767l2.86-11.178.44-1.812h.07l.465 1.812 3.276 11.178zM196.407 74.11c-.047 3.973-1.883 5.483-4.392 5.483-3.02 0-4.392-1.928-4.532-5.484zm-9.62-.373c0 4.253 1.788 6.46 5.228 6.46 2.928 0 5.066-1.812 5.066-6.25 0-.094 0-.233-.022-.326h-9.552c.047-5.158 1.58-6.878 5.136-6.878 1.464 0 2.65.395 3.81 1.093l.094-.605c-1.162-.72-2.393-1.115-3.95-1.115-4.206 0-5.81 2.184-5.81 7.622M200.96 66.394v13.502l.58.07.024-2.022V76.06h.047c.675 2.302 2.348 4.068 4.672 4.068.395 0 .813-.046 1.208-.14l-.07-.65c-.395.116-.766.14-1.185.14-2.463 0-4.578-2.417-4.578-6.135v-6.95zM219.295 74.11c-.047 3.973-1.883 5.483-4.392 5.483-3.02 0-4.392-1.928-4.532-5.484zm-9.62-.373c0 4.253 1.788 6.46 5.228 6.46 2.928 0 5.066-1.812 5.066-6.25 0-.094 0-.233-.024-.326h-9.552c.047-5.158 1.58-6.878 5.136-6.878 1.464 0 2.65.395 3.81 1.093l.094-.605c-1.162-.72-2.393-1.115-3.95-1.115-4.206 0-5.81 2.184-5.81 7.622M232.656 77.362c-.767 1.35-2.37 2.21-4.322 2.21-3.417-.002-4.718-1.955-4.718-6.44 0-4.554 1.208-6.46 4.694-6.46 2.603 0 3.834 1.326 4.346 2.278zm.186-10.968l-.163 1.765-.07.023c-.86-1.37-2.394-2.07-4.44-2.07-3.857.002-5.274 2.187-5.274 7.043 0 4.74 1.51 7.018 5.32 7.018 1.814 0 3.464-.65 4.44-2.02l.046.022-.046 1.858v4.973l.697.094V66.394zM251.338 79.593c-1.883 0-3.463-.837-4.37-2.208v-8.412c.675-1.162 2.21-2.278 4.416-2.278 2.696 0 4.602 1.394 4.602 6.484 0 5.018-1.743 6.413-4.648 6.413m.07-13.456c-1.86 0-3.556.698-4.44 2.07l-.07-.024-.185-1.79h-.44v18.66l.696.07v-5.042l-.024-1.858.046-.024c.953 1.302 2.58 2.022 4.485 2.022 3.207 0 5.23-1.673 5.23-7.04 0-5.253-1.907-7.043-5.3-7.043M265.094 65.743l.116.325-6.11 13.897h.882l4.857-11.34.72-1.744h.07l.603 1.768 4.136 11.317h.813l-5.275-14.153c-.883-2.324-2.046-2.928-3.417-2.928-.673 0-1.346.186-1.858.465l.14.58c.534-.325 1.138-.442 1.626-.442 1.162 0 1.952.512 2.696 2.255" fill="#fff"/></g></svg>