<svg width="24" height="24" viewBox="0 0 24 24" xmlns="http://www.w3.org/2000/svg"><title>ic-android</title><path d="M6.95 9.87c-.528 0-.95.41-.95.927v3.865c0 .517.422.928.95.928.53 0 .953-.41.953-.928v-3.865c0-.517-.422-.928-.952-.928zm4.916 7.156v2.046c0 .517-.42.928-.95.928s-.953-.41-.953-.928v-2.046h-.68c-.57 0-1.026-.446-1.026-1v-5.998h8.486v5.998c0 .554-.458 1-1.026 1h-.68v2.046c0 .517-.422.928-.952.928s-.95-.41-.95-.928v-2.046h-1.27zM18.05 9.87c.528 0 .95.41.95.927v3.865c0 .517-.422.928-.95.928-.53 0-.953-.41-.953-.928v-3.865c0-.517.422-.928.952-.928zM9.865 5c.048 0 .093.023.12.068l.678 1.194c.556-.24 1.18-.375 1.836-.375.657 0 1.28.134 1.836.375l.68-1.194c.025-.045.07-.068.118-.068.023 0 .044.006.064.017.068.037.09.113.053.18l-.67 1.18c1.29.654 2.16 1.898 2.163 3.325H8.257c.002-1.427.873-2.67 2.162-3.325l-.67-1.18c-.04-.067-.016-.143.05-.18.022-.01.043-.017.066-.017zm.676 2.496c-.194 0-.354.157-.354.346 0 .19.16.345.354.345.193 0 .354-.156.354-.345 0-.19-.16-.346-.354-.346zm3.916 0c-.193 0-.354.157-.354.346 0 .19.16.345.354.345.194 0 .354-.156.354-.345 0-.19-.16-.346-.354-.346z" fill-rule="nonzero" fill="#D6D6D6"/></svg>