<svg width="24" height="24" viewBox="0 0 24 24" xmlns="http://www.w3.org/2000/svg"><title>ic-apple</title><path d="M8.602 19.504c-.335-.22-.633-.492-.882-.805-.27-.326-.523-.667-.754-1.02-.542-.786-.967-1.644-1.26-2.55-.355-1.052-.528-2.06-.528-3.046 0-1.1.24-2.06.71-2.866.35-.63.865-1.158 1.49-1.53.603-.375 1.3-.58 2.015-.588.25 0 .514.034.8.102.207.057.46.148.756.26.39.148.606.24.676.26.228.08.423.115.572.115.114 0 .275-.034.458-.09.103-.035.298-.103.573-.216.273-.1.49-.18.662-.25.264-.078.516-.146.745-.18.275-.045.55-.056.813-.033.504.033.962.135 1.375.294.72.284 1.304.737 1.74 1.372-.184.11-.356.24-.516.384-.347.302-.64.658-.87 1.054-.306.54-.463 1.15-.458 1.767.01.76.206 1.427.595 2.004.274.42.64.783 1.088 1.078.218.148.412.248.595.317-.083.26-.178.518-.287.77-.243.565-.538 1.107-.88 1.62-.31.44-.55.77-.734.986-.288.34-.562.59-.837.77-.306.2-.664.306-1.03.305-.25.01-.496-.02-.734-.09-.206-.065-.408-.14-.607-.226-.208-.094-.423-.173-.642-.24-.268-.067-.545-.102-.823-.1-.287 0-.56.034-.825.1-.22.062-.433.138-.64.228-.3.124-.493.203-.607.238-.227.07-.462.11-.7.124-.365 0-.71-.102-1.052-.316zm4.855-12.936c-.48.238-.938.34-1.397.305-.07-.452 0-.917.195-1.427.172-.43.4-.826.71-1.178.325-.365.717-.665 1.157-.883.47-.238.915-.362 1.34-.385.057.475 0 .952-.173 1.45-.162.45-.402.868-.71 1.235-.306.37-.69.67-1.123.883z" fill-rule="nonzero" fill="#D6D6D6"/></svg>