<svg width="24" height="24" viewBox="0 0 24 24" xmlns="http://www.w3.org/2000/svg"><title>ic-chrome</title><path d="M7.42 11.032L5.27 7.03C6.768 4.61 9.446 3 12.5 3c2.78 0 5.25 1.335 6.8 3.4h-6.806c-2.656.003-4.837 2.037-5.073 4.632zm.602 2.912C8.888 15.527 10.57 16.6 12.5 16.6c.794 0 1.545-.18 2.215-.505L12.392 20C7.748 19.94 4 16.16 4 11.5c0-1.277.282-2.49.786-3.575l3.217 5.986.02.034zm8.87.15c.45-.76.708-1.647.708-2.594 0-1.774-.906-3.336-2.28-4.25h4.543C20.586 8.5 21 9.952 21 11.5c0 4.387-3.324 7.998-7.59 8.452l3.46-5.82c.01-.012.016-.025.022-.038zM12.5 14.9c-1.878 0-3.4-1.522-3.4-3.4s1.522-3.4 3.4-3.4 3.4 1.522 3.4 3.4-1.522 3.4-3.4 3.4z" fill="#D6D6D6" fill-rule="evenodd"/></svg>