<svg width="24" height="24" viewBox="0 0 24 24" xmlns="http://www.w3.org/2000/svg"><title>ic-firefox</title><path d="M6.755 6.672C8.333 5.025 10.555 4 13.015 4c1.426 0 2.77.344 3.957.953 1.72.687 2.903 1.92 3.665 3.203.01-.513-.326-1.633-.743-1.945.453.31 1.147 1.305 1.366 2.414.338 1.707.133 3.602-.195 4.466 1.013-.626 1.112-1.87.795-3.097.692 1.958-.227 4.385-.713 5.25-.366.648-1.042 1.198-1.54 2.136.813-.448 1.593-.94 1.742-1.758-.1.625-.195 1.294-1.09 2.174-1.627 1.603-3.13 1.588-3.81 2.213.446-.005 1.627-.16 2.094-.705-1.365 1.86-5.31 1.638-5.31 1.638s.068.168.416.228c-1.11.043-2.63-.446-2.63-.446s.277.26.724.387c-4.072-.916-5.695-3.366-6.31-4.42-.81-1.384-1.055-2.66-1.112-3.697-.117.532-.162.926-.166.977-.1-1.56.07-2.6.29-3.27-.298.53-.446 1-.446 1 .22-1.244.494-2.045.76-2.566.057-.128.2-.387.42-.69 0-.043-.007-.09-.007-.14-.043-.607.03-1.085.1-1.436.05-.22.11-.417.174-.59.007-.016.01.072.01.097l.004-.006c.013-.1.045-.146.064-.224.026-.104.106-.196.134-.253.006-.013-.01.15-.005.135.02-.045.037-.093.063-.175.147-.462.37-.592.37-.592.013.302.13.722.267.97.02.033.02-.073.042-.04.14.215.258.368.36.482zm.345.308l.004.003c.577-.185 1.268-.234 2.082-.032l.003-.003c.076-.107.16-.203.25-.285.005.045.005.065.005.105.08-.184.392-.425.522-.492-.006.04-.008.06-.006.084.275-.194.597-.374.87-.435.042-.01-.13.077-.18.132.128-.067.177-.097.43-.15.25-.05.542.028.49.058-.043.023-.263.128-.298.16-.03.03.126-.015.094.01-.52.426-.853.95-1.02 1.553.018.042.04.094.073.153.023.04.05.084.08.13.15.21.398.432.778.43 1.392-.012 1.492.09 1.5.26.013.23-.032.393-.095.506-.086.178-.224.332-.36.432-.096.072-1.402.757-1.45.976v.002c.022.044.042.088.056.132-.06-.05-.108-.026-.07.03.045.064.04.11.07.287.04.253-.02.397-.05.536-.096-.053-.183-.094-.265-.127h-.007c.156.096.212.194.227.227.04.08.002.105.002.105s-.053-.08-.21-.16c-.117-.06-.347-.144-.45-.18l-.026.01c.038.042.096.13.096.13s-.078-.04-.203-.084c-.232.13-.356.405-.356.608 0 .254-.056.665.812 1.18.014.008-.13-.028-.118-.018.08.055.4.202.574.267.062.036-.188-.028-.13 0 .06.03.116.056.17.078.916.363 1.47-.16 2.122-.323.85-.213 1.476.185 1.734.48.258.298.037.63-.295.557-.332-.075-.703.237-1.33.665-.618.423-1.688.6-2.697.355.247.233.676.694 1.005.798.377.12.904.07 1.122.308-.218-.13-.504-.062-.695-.04 1.31.655 2.295.476 2.527.442.565-.085.817-.273.917-.343-.024.138-.113.28-.223.313.118.082.347-.21.6-.472.07-.07.137-.132.202-.184.01-.01-.12.168-.108.158.073-.055.128-.114.17-.174.107-.15.272-.207.272-.207.03.073.018.19.005.3 0 .003.026.023.075.027.178.03.582-.235.973-1.092.516-1.132.545-1.926.545-1.926.065.14.177.374.214.684.168-.675.412-1.22.134-3.762.258.228.62.88.82 1.297.138-2.588-1.158-4.296-1.932-4.872.516.04 1.28.516 1.727.973-.225-.475-.525-.985-1.054-1.54-1.383-1.003-3.053-1.557-4.81-1.557-2.27 0-4.387.927-5.916 2.517z" fill-rule="nonzero" fill="#D6D6D6"/></svg>