<svg width="16" height="16" viewBox="0 0 16 16" xmlns="http://www.w3.org/2000/svg"><title>ic-loop</title><path d="M12.158 4c-1.15 0-2.23.53-2.964 1.455l-.15.2-.416.583.63.88.59-.825.13-.176c.54-.678 1.334-1.067 2.18-1.067 1.562 0 2.833 1.322 2.833 2.95 0 1.625-1.27 2.948-2.832 2.948-.727 0-1.418-.286-1.946-.805l-.32-.374-.13-.18-.01-.016L6.87 5.538C6.14 4.572 5.022 4 3.84 4 1.722 4 0 5.794 0 8s1.723 4 3.842 4c1.047 0 2.026-.43 2.755-1.212l.226-.264.543-.76-.63-.88-.697.974-.175.205c-.537.57-1.255.886-2.024.886C2.28 10.95 1.01 9.626 1.01 8c0-1.626 1.27-2.95 2.833-2.95.91 0 1.773.46 2.304 1.233l.005.006 1.22 1.708-.004.005.63.88.002-.005 1.098 1.537.013.018.375.44.015.014c.718.717 1.662 1.112 2.658 1.112C14.278 12 16 10.204 16 8c0-2.206-1.723-4-3.842-4z" fill="#333" fill-rule="evenodd"/></svg>